<svg width="544" height="109" viewBox="0 0 544 109" fill="none" xmlns="http://www.w3.org/2000/svg">
<path d="M77.199 74C75.407 74 74.511 73.104 74.511 71.312V33.296C74.511 31.504 75.407 30.608 77.199 30.608H100.751C101.583 30.608 102.234 30.8533 102.703 31.344C103.194 31.8133 103.439 32.464 103.439 33.296C103.439 35.088 102.543 35.984 100.751 35.984H79.887V49.424H92.751C94.543 49.424 95.439 50.32 95.439 52.112C95.439 53.904 94.543 54.8 92.751 54.8H79.887V71.312C79.887 73.104 78.991 74 77.199 74ZM110.181 74C108.389 74 107.493 73.104 107.493 71.312V44.24C107.493 42.448 108.389 41.552 110.181 41.552C111.973 41.552 112.869 42.448 112.869 44.24V46.736C114.128 45.0293 115.728 43.7387 117.669 42.864C119.632 41.9893 121.872 41.552 124.389 41.552C126.181 41.552 127.077 42.448 127.077 44.24C127.077 46.032 126.181 46.928 124.389 46.928C120.699 46.928 117.883 47.6107 115.941 48.976C114 50.3413 112.976 52.144 112.869 54.384V71.312C112.869 73.104 111.973 74 110.181 74ZM146.484 74C142.239 74 139.081 72.976 137.012 70.928C134.964 68.88 133.94 65.744 133.94 61.52V54.096C133.94 49.808 134.964 46.6507 137.012 44.624C139.081 42.576 142.239 41.552 146.484 41.552H151.732C155.999 41.552 159.156 42.576 161.204 44.624C163.252 46.672 164.276 49.8293 164.276 54.096V61.456C164.276 65.7013 163.252 68.8587 161.204 70.928C159.156 72.976 155.999 74 151.732 74H146.484ZM139.316 61.52C139.316 64.272 139.817 66.1493 140.82 67.152C141.823 68.1333 143.711 68.624 146.484 68.624H151.732C154.527 68.624 156.415 68.1227 157.396 67.12C158.399 66.1173 158.9 64.2293 158.9 61.456V54.096C158.9 51.3013 158.399 49.4133 157.396 48.432C156.415 47.4293 154.527 46.928 151.732 46.928H146.484C144.628 46.928 143.177 47.1413 142.132 47.568C141.108 47.9733 140.383 48.6987 139.956 49.744C139.529 50.768 139.316 52.2187 139.316 54.096V61.52ZM180.646 74C178.854 74 177.958 73.104 177.958 71.312V44.24C177.958 42.448 178.854 41.552 180.646 41.552C182.438 41.552 183.334 42.448 183.334 44.24V45.296C185.596 42.8 188.924 41.552 193.318 41.552H195.11C199.377 41.552 202.535 42.576 204.583 44.624C206.63 46.672 207.654 49.8293 207.654 54.096V71.312C207.654 73.104 206.758 74 204.966 74C203.174 74 202.278 73.104 202.278 71.312V54.096C202.278 51.3013 201.766 49.4133 200.742 48.432C199.74 47.4293 197.862 46.928 195.11 46.928H193.318C190.758 46.928 188.529 47.2267 186.63 47.824C184.732 48.4 183.633 49.3173 183.334 50.576V71.312C183.334 73.104 182.438 74 180.646 74ZM235.949 74C231.725 74 228.611 72.9973 226.605 70.992C224.6 68.9867 223.597 65.8933 223.597 61.712V46.928H220.461C218.669 46.928 217.773 46.032 217.773 44.24C217.773 42.448 218.669 41.552 220.461 41.552H223.597V36.88C223.597 35.088 224.493 34.192 226.285 34.192C228.077 34.192 228.973 35.088 228.973 36.88V41.552H236.333C238.125 41.552 239.021 42.448 239.021 44.24C239.021 46.032 238.125 46.928 236.333 46.928H228.973V61.712C228.973 64.4213 229.464 66.256 230.445 67.216C231.427 68.1547 233.261 68.624 235.949 68.624C236.781 68.624 237.432 68.8373 237.901 69.264C238.392 69.6907 238.637 70.3733 238.637 71.312C238.637 73.104 237.741 74 235.949 74ZM252.264 59.984V61.52C252.264 64.272 252.765 66.1493 253.768 67.152C254.77 68.1333 256.658 68.624 259.432 68.624H264.68C266.856 68.624 268.466 68.4213 269.512 68.016C270.557 67.6107 271.25 66.896 271.592 65.872C271.826 65.0613 272.146 64.4427 272.552 64.016C272.978 63.5893 273.618 63.376 274.472 63.376C275.368 63.376 276.05 63.6107 276.52 64.08C276.989 64.5493 277.138 65.232 276.968 66.128C276.498 68.7733 275.24 70.7467 273.192 72.048C271.144 73.3493 268.306 74 264.68 74H259.432C255.186 74 252.029 72.976 249.96 70.928C247.912 68.88 246.888 65.744 246.888 61.52V54.096C246.888 49.7653 247.912 46.5867 249.96 44.56C252.029 42.512 255.186 41.5093 259.432 41.552H264.68C268.946 41.552 272.104 42.576 274.152 44.624C276.2 46.6507 277.224 49.808 277.224 54.096V57.296C277.224 59.088 276.328 59.984 274.536 59.984H252.264ZM259.432 46.928C256.658 46.8853 254.77 47.3653 253.768 48.368C252.765 49.3707 252.264 51.28 252.264 54.096V54.608H271.848V54.096C271.848 51.3013 271.346 49.4133 270.344 48.432C269.362 47.4293 267.474 46.928 264.68 46.928H259.432ZM293.594 74C291.802 74 290.906 73.104 290.906 71.312V44.24C290.906 42.448 291.802 41.552 293.594 41.552C295.386 41.552 296.282 42.448 296.282 44.24V45.296C298.543 42.8 301.871 41.552 306.266 41.552H308.058C312.325 41.552 315.482 42.576 317.53 44.624C319.578 46.672 320.602 49.8293 320.602 54.096V71.312C320.602 73.104 319.706 74 317.914 74C316.122 74 315.226 73.104 315.226 71.312V54.096C315.226 51.3013 314.714 49.4133 313.69 48.432C312.687 47.4293 310.81 46.928 308.058 46.928H306.266C303.706 46.928 301.477 47.2267 299.578 47.824C297.679 48.4 296.581 49.3173 296.282 50.576V71.312C296.282 73.104 295.386 74 293.594 74ZM346.209 74C341.964 74 338.806 72.976 336.737 70.928C334.689 68.8587 333.665 65.7013 333.665 61.456V54.096C333.665 49.8293 334.689 46.672 336.737 44.624C338.806 42.576 341.964 41.552 346.209 41.552H358.625V31.632C358.625 29.84 359.521 28.944 361.313 28.944C363.105 28.944 364.001 29.84 364.001 31.632V71.312C364.001 73.104 363.105 74 361.313 74C359.521 74 358.625 73.104 358.625 71.312V70.864C357.622 71.888 356.31 72.6667 354.689 73.2C353.068 73.7333 351.052 74 348.641 74H346.209ZM346.209 68.624H348.641C351.457 68.624 353.825 68.2613 355.745 67.536C357.665 66.8107 358.625 65.7013 358.625 64.208V46.928H346.209C343.436 46.928 341.548 47.44 340.545 48.464C339.542 49.4667 339.041 51.344 339.041 54.096V61.456C339.041 64.2293 339.542 66.1173 340.545 67.12C341.569 68.1227 343.457 68.624 346.209 68.624ZM391.421 74C386.536 74 382.92 72.8373 380.573 70.512C378.248 68.1653 377.085 64.5493 377.085 59.664V44.88C377.085 39.952 378.258 36.336 380.605 34.032C382.952 31.7067 386.557 30.5653 391.421 30.608H399.101C404.008 30.608 407.624 31.7707 409.949 34.096C412.274 36.4213 413.437 40.0373 413.437 44.944V59.664C413.437 64.5493 412.274 68.1653 409.949 70.512C407.624 72.8373 404.008 74 399.101 74H391.421ZM391.421 68.624H399.101C401.384 68.624 403.176 68.3573 404.477 67.824C405.778 67.2693 406.696 66.3413 407.229 65.04C407.784 63.7387 408.061 61.9467 408.061 59.664V44.944C408.061 42.6827 407.784 40.9013 407.229 39.6C406.696 38.2987 405.778 37.3707 404.477 36.816C403.176 36.2613 401.384 35.984 399.101 35.984H391.421C389.16 35.9627 387.378 36.2187 386.077 36.752C384.776 37.2853 383.848 38.2027 383.293 39.504C382.738 40.8053 382.461 42.5973 382.461 44.88V59.664C382.461 61.9467 382.728 63.7387 383.261 65.04C383.816 66.3413 384.744 67.2693 386.045 67.824C387.346 68.3573 389.138 68.624 391.421 68.624ZM429.792 74C428 74 427.104 73.104 427.104 71.312V44.24C427.104 42.448 428 41.552 429.792 41.552C431.584 41.552 432.48 42.448 432.48 44.24V46.736C433.738 45.0293 435.338 43.7387 437.28 42.864C439.242 41.9893 441.482 41.552 444 41.552C445.792 41.552 446.688 42.448 446.688 44.24C446.688 46.032 445.792 46.928 444 46.928C440.309 46.928 437.493 47.6107 435.552 48.976C433.61 50.3413 432.586 52.144 432.48 54.384V71.312C432.48 73.104 431.584 74 429.792 74ZM459.024 74C457.232 74 456.336 73.104 456.336 71.312V31.632C456.336 29.84 457.232 28.944 459.024 28.944C460.816 28.944 461.712 29.84 461.712 31.632V44.976C462.821 43.8453 464.208 42.992 465.872 42.416C467.536 41.84 469.477 41.552 471.696 41.552H474.128C478.395 41.552 481.552 42.576 483.6 44.624C485.648 46.672 486.672 49.8293 486.672 54.096V61.456C486.672 65.7013 485.648 68.8587 483.6 70.928C481.552 72.976 478.395 74 474.128 74H471.696C469.477 74 467.536 73.712 465.872 73.136C464.208 72.56 462.821 71.7173 461.712 70.608V71.312C461.712 73.104 460.816 74 459.024 74ZM471.696 68.624H474.128C476.923 68.624 478.811 68.1227 479.792 67.12C480.795 66.096 481.296 64.208 481.296 61.456V54.096C481.296 51.3013 480.784 49.4133 479.76 48.432C478.757 47.4293 476.88 46.928 474.128 46.928H471.696C468.88 46.928 466.512 47.2907 464.592 48.016C462.672 48.72 461.712 49.8293 461.712 51.344V64.208C461.712 65.7013 462.672 66.8107 464.592 67.536C466.512 68.2613 468.88 68.624 471.696 68.624ZM502.173 36.304C500.146 36.304 499.133 35.28 499.133 33.232V31.344C499.133 29.3387 500.146 28.336 502.173 28.336H504.029C505.97 28.336 506.941 29.3387 506.941 31.344V33.232C506.941 35.28 505.97 36.304 504.029 36.304H502.173ZM503.069 74C501.277 74 500.381 73.104 500.381 71.312V44.24C500.381 42.448 501.277 41.552 503.069 41.552C504.861 41.552 505.757 42.448 505.757 44.24V71.312C505.757 73.104 504.861 74 503.069 74ZM534.685 74C530.461 74 527.346 72.9973 525.341 70.992C523.335 68.9867 522.333 65.8933 522.333 61.712V46.928H519.197C517.405 46.928 516.509 46.032 516.509 44.24C516.509 42.448 517.405 41.552 519.197 41.552H522.333V36.88C522.333 35.088 523.229 34.192 525.021 34.192C526.813 34.192 527.709 35.088 527.709 36.88V41.552H535.069C536.861 41.552 537.757 42.448 537.757 44.24C537.757 46.032 536.861 46.928 535.069 46.928H527.709V61.712C527.709 64.4213 528.199 66.256 529.181 67.216C530.162 68.1547 531.997 68.624 534.685 68.624C535.517 68.624 536.167 68.8373 536.637 69.264C537.127 69.6907 537.373 70.3733 537.373 71.312C537.373 73.104 536.477 74 534.685 74Z" fill="white"/>
<path d="M57.9416 59.2847C57.9416 64.223 53.9383 68.2263 49 68.2263C44.0616 68.2263 40.0583 64.223 40.0583 59.2847C40.0583 54.3464 44.0616 50.3431 49 50.3431C53.9383 50.3431 57.9416 54.3464 57.9416 59.2847ZM40.6642 59.2847C40.6642 63.8884 44.3962 67.6205 49 67.6205C53.6037 67.6205 57.3358 63.8884 57.3358 59.2847C57.3358 54.6809 53.6037 50.9489 49 50.9489C44.3962 50.9489 40.6642 54.6809 40.6642 59.2847Z" fill="white" fill-opacity="0.4"/>
<path d="M66.5256 60C66.5256 69.6791 58.6791 77.5255 49 77.5255C39.3209 77.5255 31.4745 69.6791 31.4745 60C31.4745 50.3209 39.3209 42.4744 49 42.4744C58.6791 42.4744 66.5256 50.3209 66.5256 60ZM32.6619 60C32.6619 69.0233 39.9767 76.3381 49 76.3381C58.0234 76.3381 65.3382 69.0233 65.3382 60C65.3382 50.9767 58.0234 43.6618 49 43.6618C39.9767 43.6618 32.6619 50.9767 32.6619 60Z" fill="white" fill-opacity="0.4"/>
<path d="M92.5252 82.5069C87.9184 91.4158 80.6887 98.6965 71.8124 103.366C62.9361 108.035 52.8407 109.868 42.8895 108.618C32.9382 107.367 23.6105 103.092 16.1657 96.3718C8.72098 89.6512 3.51787 80.8079 1.25897 71.036C-0.999932 61.2642 -0.20581 51.0345 3.5341 41.7284C7.27401 32.4222 13.7796 24.4878 22.1723 18.9966C30.565 13.5054 40.4407 10.7219 50.4657 11.0219C60.4908 11.3219 70.1823 14.691 78.2317 20.6743L76.8016 22.5982C69.146 16.9076 59.9286 13.7033 50.394 13.418C40.8594 13.1327 31.4669 15.78 23.4848 21.0026C15.5026 26.2251 9.3153 33.7714 5.75835 42.6222C2.2014 51.4731 1.44612 61.2023 3.59451 70.4961C5.74291 79.7899 10.6915 88.2006 17.772 94.5925C24.8525 100.984 33.724 105.05 43.1884 106.239C52.6528 107.429 62.2543 105.685 70.6964 101.244C79.1384 96.8034 86.0144 89.8789 90.3959 81.4058L92.5252 82.5069Z" fill="white" fill-opacity="0.4"/>
</svg>
